DUPLICATERobotoFlex-opsz144-wght400-wdth100-slnt-10.ufo
<glyph name="asterisk" format="2">
  <advance width="1000"/>
  <unicode hex="002A"/>
  <outline>
    <contour>
      <point x="143.0" y="1109.0" type="line"/>
      <point x="204.0" y="1208.0" type="line"/>
      <point x="549.0" y="1065.0" type="line"/>
      <point x="610.0" y="1476.0" type="line"/>
      <point x="710.0" y="1476.0" type="line"/>
      <point x="631.0" y="1065.0" type="line"/>
      <point x="1031.0" y="1208.0" type="line"/>
      <point x="1030.0" y="1109.0" type="line"/>
      <point x="641.0" y="1000.0" type="line"/>
      <point x="822.0" y="669.0" type="line"/>
      <point x="723.0" y="621.0" type="line"/>
      <point x="559.0" y="960.0" type="line"/>
      <point x="273.0" y="621.0" type="line"/>
      <point x="213.0" y="669.0" type="line"/>
      <point x="500.0" y="1000.0" type="line"/>
    </contour>
  </outline>
</glyph>
<glyph name="plus" format="2">
  <advance width="1139"/>
  <unicode hex="002B"/>
  <outline>
    <contour>
      <point x="156.0" y="626.0" type="line"/>
      <point x="185.0" y="722.0" type="line"/>
      <point x="1020.0" y="722.0" type="line"/>
      <point x="991.0" y="626.0" type="line"/>
    </contour>
    <contour>
      <point x="451.0" y="208.0" type="line"/>
      <point x="623.0" y="1140.0" type="line"/>
      <point x="725.0" y="1140.0" type="line"/>
      <point x="554.0" y="208.0" type="line"/>
    </contour>
  </outline>
</glyph>
<glyph name="period" format="2">
  <advance width="471"/>
  <unicode hex="002E"/>
  <outline>
    <contour>
      <point x="76.0" y="67.0" type="qcurve" smooth="yes"/>
      <point x="86.0" y="103.0"/>
      <point x="138.0" y="152.0"/>
      <point x="176.0" y="152.0" type="qcurve" smooth="yes"/>
      <point x="213.0" y="152.0"/>
      <point x="240.0" y="103.0"/>
      <point x="231.0" y="67.0" type="qcurve" smooth="yes"/>
      <point x="221.0" y="30.0"/>
      <point x="169.0" y="-19.0"/>
      <point x="131.0" y="-19.0" type="qcurve" smooth="yes"/>
      <point x="94.0" y="-19.0"/>
      <point x="67.0" y="31.0"/>
    </contour>
  </outline>
</glyph>
<glyph name="colon" format="2">
  <advance width="498"/>
  <unicode hex="003A"/>
  <outline>
    <contour>
      <point x="91.0" y="66.0" type="qcurve" smooth="yes"/>
      <point x="99.0" y="101.0"/>
      <point x="150.0" y="151.0"/>
      <point x="186.0" y="151.0" type="qcurve" smooth="yes"/>
      <point x="223.0" y="151.0"/>
      <point x="250.0" y="101.0"/>
      <point x="241.0" y="66.0" type="qcurve" smooth="yes"/>
      <point x="233.0" y="31.0"/>
      <point x="182.0" y="-19.0"/>
      <point x="145.0" y="-19.0" type="qcurve" smooth="yes"/>
      <point x="108.0" y="-19.0"/>
      <point x="82.0" y="30.0"/>
    </contour>
    <contour>
      <point x="241.0" y="844.0" type="qcurve" smooth="yes"/>
      <point x="250.0" y="880.0"/>
      <point x="300.0" y="929.0"/>
      <point x="336.0" y="929.0" type="qcurve" smooth="yes"/>
      <point x="374.0" y="929.0"/>
      <point x="400.0" y="880.0"/>
      <point x="392.0" y="845.0" type="qcurve" smooth="yes"/>
      <point x="383.0" y="810.0"/>
      <point x="333.0" y="760.0"/>
      <point x="295.0" y="760.0" type="qcurve" smooth="yes"/>
      <point x="258.0" y="760.0"/>
      <point x="232.0" y="809.0"/>
    </contour>
  </outline>
</glyph>
<glyph name="semicolon" format="2">
  <advance width="498"/>
  <unicode hex="003B"/>
  <outline>
    <contour>
      <point x="6.0" y="-145.0" type="line"/>
      <point x="46.0" y="-101.0"/>
      <point x="108.0" y="-10.0"/>
      <point x="124.0" y="50.0" type="qcurve" smooth="yes"/>
      <point x="150.0" y="153.0" type="line"/>
      <point x="248.0" y="153.0" type="line"/>
      <point x="221.0" y="50.0" type="line" smooth="yes"/>
      <point x="202.0" y="-25.0"/>
      <point x="121.0" y="-138.0"/>
      <point x="65.0" y="-183.0" type="qcurve"/>
    </contour>
    <contour>
      <point x="241.0" y="844.0" type="qcurve" smooth="yes"/>
      <point x="250.0" y="880.0"/>
      <point x="300.0" y="929.0"/>
      <point x="336.0" y="929.0" type="qcurve" smooth="yes"/>
      <point x="374.0" y="929.0"/>
      <point x="400.0" y="880.0"/>
      <point x="392.0" y="845.0" type="qcurve" smooth="yes"/>
      <point x="383.0" y="810.0"/>
      <point x="333.0" y="760.0"/>
      <point x="295.0" y="760.0" type="qcurve" smooth="yes"/>
      <point x="258.0" y="760.0"/>
      <point x="232.0" y="809.0"/>
    </contour>
  </outline>
</glyph>
<glyph name="question" format="2">
  <advance width="794"/>
  <unicode hex="003F"/>
  <outline>
    <contour>
      <point x="185.0" y="66.0" type="qcurve" smooth="yes"/>
      <point x="193.0" y="102.0"/>
      <point x="246.0" y="154.0"/>
      <point x="284.0" y="154.0" type="qcurve" smooth="yes"/>
      <point x="322.0" y="154.0"/>
      <point x="350.0" y="102.0"/>
      <point x="341.0" y="66.0" type="qcurve" smooth="yes"/>
      <point x="332.0" y="30.0"/>
      <point x="280.0" y="-22.0"/>
      <point x="242.0" y="-22.0" type="qcurve" smooth="yes"/>
      <point x="205.0" y="-22.0"/>
      <point x="176.0" y="30.0"/>
    </contour>
    <contour>
      <point x="166.0" y="1086.0" type="line"/>
      <point x="170.0" y="1108.0" type="line" smooth="yes"/>
      <point x="199.0" y="1279.0"/>
      <point x="400.0" y="1476.0"/>
      <point x="542.0" y="1476.0" type="qcurve" smooth="yes"/>
      <point x="684.0" y="1476.0"/>
      <point x="809.0" y="1286.0"/>
      <point x="779.0" y="1139.0" type="qcurve" smooth="yes"/>
      <point x="755.0" y="995.8261964735516"/>
      <point x="643.0844066940958" y="830.2542535257012"/>
      <point x="550.0" y="733.0" type="qcurve" smooth="yes"/>
      <point x="457.31154335106294" y="640.4853623493966"/>
      <point x="384.0" y="499.81388012618294"/>
      <point x="371.0" y="425.0" type="qcurve" smooth="yes"/>
      <point x="369.0" y="415.0" type="line"/>
      <point x="262.0" y="415.0" type="line"/>
      <point x="264.0" y="425.0" type="line" smooth="yes"/>
      <point x="286.0" y="539.0578512396694"/>
      <point x="385.7615090709877" y="706.6066977048612"/>
      <point x="481.0" y="798.0" type="qcurve" smooth="yes"/>
      <point x="569.7634300345818" y="884.6048954236308"/>
      <point x="656.0" y="1026.3048433048434"/>
      <point x="673.0" y="1139.0" type="qcurve" smooth="yes"/>
      <point x="691.0" y="1247.1363636363637"/>
      <point x="613.0" y="1383.0"/>
      <point x="515.0" y="1383.0" type="qcurve" smooth="yes"/>
      <point x="415.0" y="1383.0"/>
      <point x="292.0" y="1239.4406779661017"/>
      <point x="275.0" y="1108.0" type="qcurve" smooth="yes"/>
      <point x="272.0" y="1086.0" type="line"/>
    </contour>
  </outline>
</glyph>
<glyph name="at" format="2">
  <advance width="1860"/>
  <unicode hex="0040"/>
  <outline>
    <contour>
      <point x="571.0" y="400.0" type="qcurve" smooth="yes"/>
      <point x="620.0" y="680.0"/>
      <point x="921.0" y="1052.0"/>
      <point x="1088.0" y="1052.0" type="qcurve" smooth="yes"/>
      <point x="1152.0" y="1052.0"/>
      <point x="1251.0" y="979.0"/>
      <point x="1273.0" y="946.0" type="qcurve"/>
      <point x="1324.0" y="946.0" type="line"/>
      <point x="1107.0" y="350.0" type="line" smooth="yes"/>
      <point x="1056.8464108329526" y="200.21086945206662"/>
      <point x="1160.0" y="87.0"/>
      <point x="1259.0" y="87.0" type="qcurve" smooth="yes"/>
      <point x="1398.0" y="87.0"/>
      <point x="1625.0" y="397.95368782161233"/>
      <point x="1665.0" y="650.0" type="qcurve" smooth="yes"/>
      <point x="1713.0" y="946.0626631853786"/>
      <point x="1428.0" y="1396.0"/>
      <point x="1105.0" y="1396.0" type="qcurve" smooth="yes"/>
      <point x="783.0" y="1396.0"/>
      <point x="257.0" y="846.7364016736401"/>
      <point x="193.0" y="460.0" type="qcurve" smooth="yes"/>
      <point x="130.0" y="68.59330143540672"/>
      <point x="442.0" y="-356.0"/>
      <point x="727.0" y="-356.0" type="qcurve" smooth="yes"/>
      <point x="857.0" y="-356.0"/>
      <point x="1046.0" y="-302.0"/>
      <point x="1116.0" y="-266.0" type="qcurve"/>
      <point x="1088.0" y="-356.0" type="line"/>
      <point x="1015.0" y="-400.0"/>
      <point x="829.0" y="-446.0"/>
      <point x="699.0" y="-446.0" type="qcurve" smooth="yes"/>
      <point x="379.0" y="-446.0"/>
      <point x="18.0" y="40.0"/>
      <point x="92.0" y="460.0" type="qcurve" smooth="yes"/>
      <point x="166.0" y="880.0"/>
      <point x="776.0" y="1486.0"/>
      <point x="1132.0" y="1486.0" type="qcurve" smooth="yes"/>
      <point x="1489.0" y="1486.0"/>
      <point x="1825.0" y="1000.0"/>
      <point x="1764.0" y="650.0" type="qcurve" smooth="yes"/>
      <point x="1713.0" y="360.0"/>
      <point x="1403.0" y="0.0"/>
      <point x="1226.0" y="0.0" type="qcurve" smooth="yes"/>
      <point x="1124.0" y="0.0"/>
      <point x="1002.0" y="101.0"/>
      <point x="986.0" y="189.0" type="qcurve"/>
      <point x="942.0" y="102.0"/>
      <point x="807.0" y="0.0"/>
      <point x="735.0" y="0.0" type="qcurve" smooth="yes"/>
      <point x="628.0" y="0.0"/>
      <point x="539.0" y="220.0"/>
    </contour>
    <contour>
      <point x="665.0" y="400.0" type="qcurve" smooth="yes"/>
      <point x="644.0" y="246.81927710843374"/>
      <point x="702.0" y="88.0"/>
      <point x="777.0" y="88.0" type="qcurve" smooth="yes"/>
      <point x="847.0" y="88.0"/>
      <point x="970.9825599707967" y="226.57717641580575"/>
      <point x="1026.0" y="396.0" type="qcurve" smooth="yes"/>
      <point x="1207.0" y="904.0" type="line"/>
      <point x="1184.3801939694056" y="928.6479685468465"/>
      <point x="1110.8947368421052" y="963.0"/>
      <point x="1071.0" y="963.0" type="qcurve" smooth="yes"/>
      <point x="934.0" y="963.0"/>
      <point x="704.0" y="642.3893653516295"/>
    </contour>
  </outline>
</glyph>
<glyph name="E" format="2">
  <advance width="827"/>
  <unicode hex="0045"/>
  <outline>
    <contour>
      <point x="25.0" y="0.0" type="line"/>
      <point x="282.0" y="1456.0" type="line"/>
      <point x="980.0" y="1456.0" type="line"/>
      <point x="952.0" y="1357.0" type="line"/>
      <point x="358.0" y="1357.0" type="line"/>
      <point x="275.0" y="801.0" type="line"/>
      <point x="775.0" y="801.0" type="line"/>
      <point x="747.0" y="702.0" type="line"/>
      <point x="248.0" y="702.0" type="line"/>
      <point x="157.0" y="99.0" type="line"/>
      <point x="761.0" y="99.0" type="line"/>
      <point x="733.0" y="0.0" type="line"/>
    </contour>
  </outline>
</glyph>
<glyph name="I" format="2">
  <advance width="374"/>
  <unicode hex="0049"/>
  <outline>
    <contour>
      <point x="35.0" y="0.0" type="line"/>
      <point x="291.0" y="1456.0" type="line"/>
      <point x="396.0" y="1456.0" type="line"/>
      <point x="139.0" y="0.0" type="line"/>
    </contour>
  </outline>
</glyph>
<glyph name="K" format="2">
  <advance width="901"/>
  <unicode hex="004B"/>
  <outline>
    <contour>
      <point x="25.0" y="0.0" type="line"/>
      <point x="282.0" y="1456.0" type="line"/>
      <point x="386.0" y="1456.0" type="line"/>
      <point x="260.0" y="717.0" type="line"/>
      <point x="947.0" y="1456.0" type="line"/>
      <point x="1069.0" y="1456.0" type="line"/>
      <point x="217.0" y="556.0" type="line"/>
      <point x="129.0" y="0.0" type="line"/>
    </contour>
    <contour>
      <point x="749.0" y="0.0" type="line"/>
      <point x="369.0" y="780.0" type="line"/>
      <point x="446.0" y="854.0" type="line"/>
      <point x="856.0" y="0.0" type="line"/>
    </contour>
  </outline>
</glyph>
<glyph name="P" format="2">
  <advance width="916"/>
  <unicode hex="0050"/>
  <outline>
    <contour>
      <point x="25.0" y="0.0" type="line"/>
      <point x="282.0" y="1456.0" type="line"/>
      <point x="641.0" y="1456.0" type="line" smooth="yes"/>
      <point x="838.0" y="1456.0"/>
      <point x="987.0" y="1217.0"/>
      <point x="951.0" y="1030.0" type="qcurve" smooth="yes"/>
      <point x="916.0" y="843.0"/>
      <point x="682.0" y="602.0"/>
      <point x="485.0" y="602.0" type="qcurve" smooth="yes"/>
      <point x="230.0" y="602.0" type="line"/>
      <point x="129.0" y="0.0" type="line"/>
    </contour>
    <contour>
      <point x="258.0" y="701.0" type="line"/>
      <point x="513.0" y="701.0" type="line" smooth="yes"/>
      <point x="670.0" y="701.0"/>
      <point x="825.0" y="893.1055718475073"/>
      <point x="846.0" y="1029.0" type="qcurve" smooth="yes"/>
      <point x="867.0" y="1165.8651026392963"/>
      <point x="770.0" y="1356.0"/>
      <point x="613.0" y="1357.0" type="qcurve" smooth="yes"/>
      <point x="358.0" y="1357.0" type="line"/>
    </contour>
  </outline>
</glyph>
<glyph name="U" format="2">
  <advance width="1049"/>
  <unicode hex="0055"/>
  <outline>
    <contour>
      <point x="98.0" y="496.0" type="qcurve" smooth="yes"/>
      <point x="272.0" y="1456.0" type="line"/>
      <point x="376.0" y="1456.0" type="line"/>
      <point x="202.0" y="496.0" type="line" smooth="yes"/>
      <point x="172.0" y="274.3333333333333"/>
      <point x="304.0" y="79.0"/>
      <point x="449.0" y="79.0" type="qcurve" smooth="yes"/>
      <point x="594.0" y="79.0"/>
      <point x="782.0" y="274.3333333333333"/>
      <point x="812.0" y="496.0" type="qcurve" smooth="yes"/>
      <point x="986.0" y="1456.0" type="line"/>
      <point x="1090.0" y="1456.0" type="line"/>
      <point x="917.0" y="496.0" type="line" smooth="yes"/>
      <point x="873.0" y="233.0"/>
      <point x="619" y="-20"/>
      <point x="420.0" y="-20.0" type="qcurve" smooth="yes"/>
      <point x="243.0" y="-20.0"/>
      <point x="52" y="244"/>
    </contour>
  </outline>
</glyph>
<glyph name="b" format="2">
  <advance width="902"/>
  <unicode hex="0062"/>
  <outline>
    <contour>
      <point x="14.0" y="0.0" type="line"/>
      <point x="284.0" y="1458.0" type="line"/>
      <point x="386.0" y="1458.0" type="line"/>
      <point x="279.0" y="795.0" type="line"/>
      <point x="336.0" y="858.0"/>
      <point x="492.0" y="934.0"/>
      <point x="589.0" y="934.0" type="qcurve" smooth="yes"/>
      <point x="755.0" y="934.0"/>
      <point x="885.0" y="684.0"/>
      <point x="844.0" y="484.0" type="qcurve" smooth="yes"/>
      <point x="838.0" y="452.0" type="line" smooth="yes"/>
      <point x="798.0" y="252.0"/>
      <point x="562.0" y="-20.0"/>
      <point x="396.0" y="-20.0" type="qcurve" smooth="yes"/>
      <point x="299.0" y="-20.0"/>
      <point x="163.0" y="58.0"/>
      <point x="135.0" y="121.0" type="qcurve"/>
      <point x="134.0" y="121.0" type="line"/>
      <point x="111.0" y="0.0" type="line"/>
    </contour>
    <contour>
      <point x="170.0" y="248.0" type="line"/>
      <point x="191.0" y="180.0"/>
      <point x="301.0" y="78.0"/>
      <point x="407.0" y="78.0" type="qcurve" smooth="yes"/>
      <point x="536.0" y="78.0"/>
      <point x="706.0" y="292.241645244216"/>
      <point x="734.0" y="453.0" type="qcurve" smooth="yes"/>
      <point x="740.0" y="484.0" type="line" smooth="yes"/>
      <point x="768.0" y="643.5191256830601"/>
      <point x="675.0" y="835.0"/>
      <point x="534.0" y="835.0" type="qcurve" smooth="yes"/>
      <point x="440.0" y="835.0"/>
      <point x="288.0" y="734.0"/>
      <point x="245.0" y="667.0" type="qcurve"/>
    </contour>
  </outline>
</glyph>
<glyph name="e" format="2">
  <advance width="815"/>
  <unicode hex="0065"/>
  <outline>
    <contour>
      <point x="43.0" y="442.0" type="qcurve" smooth="yes"/>
      <point x="49.0" y="474.0" type="line" smooth="yes"/>
      <point x="91.0" y="681.0"/>
      <point x="348.0" y="934.0"/>
      <point x="516.0" y="934.0" type="qcurve" smooth="yes"/>
      <point x="685.0" y="934.0"/>
      <point x="812.0" y="701.0"/>
      <point x="770.0" y="487.0" type="qcurve" smooth="yes"/>
      <point x="756.0" y="444.0" type="line"/>
      <point x="94.0" y="444.0" type="line"/>
      <point x="120.0" y="539.0" type="line"/>
      <point x="680.0" y="539.0" type="line"/>
      <point x="682.0" y="551.0" type="line" smooth="yes"/>
      <point x="701" y="664"/>
      <point x="623.0" y="835.0"/>
      <point x="489.0" y="835.0" type="qcurve" smooth="yes"/>
      <point x="355.0" y="835.0"/>
      <point x="178.0" y="639.0"/>
      <point x="149.0" y="474.0" type="qcurve" smooth="yes"/>
      <point x="144.0" y="442.0" type="line" smooth="yes"/>
      <point x="115.0" y="277.0"/>
      <point x="222.0" y="78.0"/>
      <point x="358.0" y="78.0" type="qcurve" smooth="yes"/>
      <point x="451.0" y="78.0"/>
      <point x="594.0" y="154.0"/>
      <point x="640.0" y="216.0" type="qcurve"/>
      <point x="694.0" y="144.0" type="line"/>
      <point x="645.0" y="82.0"/>
      <point x="460.0" y="-20.0"/>
      <point x="333.0" y="-20.0" type="qcurve" smooth="yes"/>
      <point x="149.0" y="-20.0"/>
      <point x="1.0" y="231.0"/>
    </contour>
  </outline>
</glyph>
<glyph name="m" format="2">
  <advance width="1390"/>
  <unicode hex="006D"/>
  <outline>
    <contour>
      <point x="14.0" y="0.0" type="line"/>
      <point x="199.0" y="914.0" type="line"/>
      <point x="296.0" y="914.0" type="line"/>
      <point x="272.0" y="777.0" type="line"/>
      <point x="273.0" y="777.0" type="line"/>
      <point x="335.0" y="851.0"/>
      <point x="486.0" y="934.0"/>
      <point x="575.0" y="934.0" type="qcurve" smooth="yes"/>
      <point x="667.0" y="934.0"/>
      <point x="778.0" y="851.0"/>
      <point x="785.0" y="769.0" type="qcurve"/>
      <point x="786.0" y="769.0" type="line"/>
      <point x="848.0" y="849.0"/>
      <point x="1015.0" y="934.0"/>
      <point x="1111.0" y="934.0" type="qcurve" smooth="yes"/>
      <point x="1229.0" y="934.0"/>
      <point x="1342.0" y="783.0"/>
      <point x="1305.0" y="606.0" type="qcurve" smooth="yes"/>
      <point x="1185.0" y="0.0" type="line"/>
      <point x="1083.0" y="0.0" type="line"/>
      <point x="1203.0" y="608.0" type="line" smooth="yes"/>
      <point x="1225.0" y="738.4071263837275"/>
      <point x="1144.0" y="835.0"/>
      <point x="1051.0" y="835.0" type="qcurve" smooth="yes"/>
      <point x="969.0" y="835.0"/>
      <point x="834.0" y="735.0"/>
      <point x="782.0" y="656.0" type="qcurve"/>
      <point x="651.0" y="0.0" type="line"/>
      <point x="548.0" y="0.0" type="line"/>
      <point x="668.0" y="608.0" type="line" smooth="yes"/>
      <point x="690.0" y="737.4483070477589"/>
      <point x="608.0" y="835.0"/>
      <point x="515.0" y="835.0" type="qcurve" smooth="yes"/>
      <point x="434.0" y="835.0"/>
      <point x="299.0" y="734.0"/>
      <point x="246.0" y="656.0" type="qcurve"/>
      <point x="115.0" y="0.0" type="line"/>
    </contour>
  </outline>
</glyph>
<glyph name="v" format="2">
  <advance width="787"/>
  <unicode hex="0076"/>
  <outline>
    <contour>
      <point x="85.0" y="914.0" type="line"/>
      <point x="185.0" y="914.0" type="line"/>
      <point x="302.0" y="231.0" type="line" smooth="yes"/>
      <point x="309" y="193"/>
      <point x="319.0" y="125.0"/>
      <point x="321.0" y="109.0" type="qcurve"/>
      <point x="325.0" y="109.0" type="line"/>
      <point x="335.0" y="126.0"/>
      <point x="367" y="193"/>
      <point x="388.0" y="231.0" type="qcurve" smooth="yes"/>
      <point x="757.0" y="914.0" type="line"/>
      <point x="872.0" y="914.0" type="line"/>
      <point x="348.0" y="0.0" type="line"/>
      <point x="241.0" y="0.0" type="line"/>
    </contour>
  </outline>
</glyph>
<glyph name="w" format="2">
  <advance width="1244"/>
  <unicode hex="0077"/>
  <outline>
    <contour>
      <point x="95.0" y="914.0" type="line"/>
      <point x="190.0" y="914.0" type="line"/>
      <point x="240.0" y="239.0" type="line" smooth="yes"/>
      <point x="243" y="201"/>
      <point x="248.0" y="130.0"/>
      <point x="248.0" y="109.0" type="qcurve"/>
      <point x="253.0" y="109.0" type="line"/>
      <point x="262.0" y="131.0"/>
      <point x="296" y="201"/>
      <point x="314.0" y="239.0" type="qcurve" smooth="yes"/>
      <point x="641.0" y="914.0" type="line"/>
      <point x="755.0" y="914.0" type="line"/>
      <point x="829.0" y="243.0" type="line" smooth="yes"/>
      <point x="833" y="205"/>
      <point x="841.0" y="131.0"/>
      <point x="843.0" y="113.0" type="qcurve"/>
      <point x="849.0" y="113.0" type="line"/>
      <point x="856.0" y="133.0"/>
      <point x="891" y="211"/>
      <point x="906.0" y="243.0" type="qcurve" smooth="yes"/>
      <point x="1222.0" y="914.0" type="line"/>
      <point x="1321.0" y="914.0" type="line"/>
      <point x="880.0" y="0.0" type="line"/>
      <point x="769.0" y="0.0" type="line"/>
      <point x="684.0" y="700.0" type="line" smooth="yes"/>
      <point x="681" y="726"/>
      <point x="679.0" y="804.0"/>
      <point x="681.0" y="832.0" type="qcurve"/>
      <point x="676.0" y="832.0" type="line"/>
      <point x="668.0" y="801.0"/>
      <point x="639" y="728"/>
      <point x="625.0" y="700.0" type="qcurve" smooth="yes"/>
      <point x="282.0" y="0.0" type="line"/>
      <point x="169.0" y="0.0" type="line"/>
    </contour>
  </outline>
</glyph>
<glyph name="z" format="2">
  <advance width="651"/>
  <unicode hex="007A"/>
  <outline>
    <contour>
      <point x="-92.0" y="0.0" type="line"/>
      <point x="-68.0" y="85.0" type="line"/>
      <point x="556.0" y="818.0" type="line"/>
      <point x="75.0" y="818.0" type="line"/>
      <point x="102.0" y="914.0" type="line"/>
      <point x="712.0" y="914.0" type="line"/>
      <point x="688.0" y="829.0" type="line"/>
      <point x="63.0" y="96.0" type="line"/>
      <point x="570.0" y="96.0" type="line"/>
      <point x="543.0" y="0.0" type="line"/>
    </contour>
  </outline>
</glyph>
<glyph name="onesuperior" format="2">
  <advance width="467"/>
  <unicode hex="00B9"/>
  <outline>
    <contour>
      <point x="45.0" y="1287.0" type="line"/>
      <point x="45.0" y="1384.0" type="line"/>
      <point x="290.0" y="1474.0" type="line"/>
      <point x="334.0" y="1474.0" type="line"/>
      <point x="334.0" y="677.0" type="line"/>
      <point x="227.0" y="677.0" type="line"/>
      <point x="227.0" y="1346.0" type="line"/>
    </contour>
  </outline>
</glyph>
<glyph name="horizontalbar" format="2">
  <advance width="656"/>
  <unicode hex="2015"/>
  <outline>
    <contour>
      <point x="50.0" y="666.0" type="line"/>
      <point x="50.0" y="762.0" type="line"/>
      <point x="605.0" y="762.0" type="line"/>
      <point x="605.0" y="666.0" type="line"/>
    </contour>
  </outline>
</glyph>
<glyph name="foursuperior" format="2">
  <advance width="684"/>
  <unicode hex="2074"/>
  <outline>
    <contour>
      <point x="61.0" y="860.0" type="line"/>
      <point x="54.0" y="952.0" type="line"/>
      <point x="372.0" y="1466.0" type="line"/>
      <point x="446.0" y="1466.0" type="line"/>
      <point x="329.0" y="1240.0" type="line"/>
      <point x="152.0" y="950.0" type="line"/>
      <point x="620.0" y="950.0" type="line"/>
      <point x="620.0" y="860.0" type="line"/>
    </contour>
    <contour>
      <point x="485.0" y="1466.0" type="line"/>
      <point x="485.0" y="677.0" type="line"/>
      <point x="392.0" y="677.0" type="line"/>
      <point x="392.0" y="1466.0" type="line"/>
    </contour>
  </outline>
</glyph>
<glyph name="circumflexcombstack.case" format="2">
  <advance width="1024"/>
  <outline>
    <contour>
      <point x="567.0" y="1862.0" type="line"/>
      <point x="795.0" y="1579.0" type="line"/>
      <point x="675.0" y="1579.0" type="line"/>
      <point x="508.0" y="1769.0" type="line"/>
      <point x="343.0" y="1579.0" type="line"/>
      <point x="230.0" y="1579.0" type="line"/>
      <point x="455.0" y="1862.0" type="line"/>
    </contour>
  </outline>
</glyph>
<glyph name="dollar.rvrn" format="2">
  <advance width="927"/>
  <outline>
    <contour>
      <point x="59.0" y="417.0" type="qcurve" smooth="yes"/>
      <point x="59.0" y="429.0" type="line"/>
      <point x="166.0" y="429.0" type="line"/>
      <point x="166.0" y="417.0" type="line" smooth="yes"/>
      <point x="166.0" y="253.0"/>
      <point x="328.0" y="93.0"/>
      <point x="472.0" y="93.0" type="qcurve" smooth="yes"/>
      <point x="616.0" y="93.0"/>
      <point x="770.0" y="245.0"/>
      <point x="770.0" y="371.0" type="qcurve" smooth="yes"/>
      <point x="770.0" y="483.0"/>
      <point x="666.0" y="630.0"/>
      <point x="466.0" y="691.0" type="qcurve" smooth="yes"/>
      <point x="262.0" y="752.0"/>
      <point x="85.0" y="940.0"/>
      <point x="85.0" y="1096.0" type="qcurve" smooth="yes"/>
      <point x="85.0" y="1261.0"/>
      <point x="287.0" y="1456.0"/>
      <point x="462.0" y="1456.0" type="qcurve" smooth="yes"/>
      <point x="641.0" y="1456.0"/>
      <point x="850.0" y="1228.0"/>
      <point x="850.0" y="1045.0" type="qcurve" smooth="yes"/>
      <point x="850.0" y="1033.0" type="line"/>
      <point x="742.0" y="1033.0" type="line"/>
      <point x="742.0" y="1045.0" type="line" smooth="yes"/>
      <point x="742.0" y="1190.0"/>
      <point x="600.0" y="1363.0"/>
      <point x="462.0" y="1363.0" type="qcurve" smooth="yes"/>
      <point x="324.0" y="1363.0"/>
      <point x="194.0" y="1226.0"/>
      <point x="194.0" y="1099.0" type="qcurve" smooth="yes"/>
      <point x="194.0" y="989.0"/>
      <point x="315.0" y="851.0"/>
      <point x="516.0" y="790.0" type="qcurve" smooth="yes"/>
      <point x="719.0" y="728.0"/>
      <point x="878.0" y="531.0"/>
      <point x="878.0" y="374.0" type="qcurve" smooth="yes"/>
      <point x="878.0" y="199.0"/>
      <point x="658.0" y="0.0"/>
      <point x="472.0" y="0.0" type="qcurve" smooth="yes"/>
      <point x="284.0" y="0.0"/>
      <point x="59.0" y="212.0"/>
    </contour>
    <contour>
      <point x="423.0" y="-150.0" type="line"/>
      <point x="423.0" y="68.0" type="line"/>
      <point x="512.0" y="68.0" type="line"/>
      <point x="512.0" y="50.0" type="line"/>
      <point x="516.0" y="40.0" type="line"/>
      <point x="516.0" y="-150.0" type="line"/>
    </contour>
    <contour>
      <point x="424.0" y="1388.0" type="line"/>
      <point x="424.0" y="1396.0" type="line"/>
      <point x="419.0" y="1406.0" type="line"/>
      <point x="419.0" y="1606.0" type="line"/>
      <point x="512.0" y="1606.0" type="line"/>
      <point x="512.0" y="1388.0" type="line"/>
    </contour>
  </outline>
</glyph>
<glyph name="gravecombstack.case" format="2">
  <advance width="1024"/>
  <outline>
    <contour>
      <point x="639.0" y="1585.0" type="line"/>
      <point x="254.0" y="1782.0" type="line"/>
      <point x="329.0" y="1888.0" type="line"/>
      <point x="692.0" y="1660.0" type="line"/>
    </contour>
  </outline>
</glyph>
